<?xml version="1.0" encoding="UTF-8"?>
<!DOCTYPE svg PUBLIC "-//W3C//DTD SVG 1.1//EN" "http://www.w3.org/Graphics/SVG/1.1/DTD/svg11.dtd">
<svg xmlns="http://www.w3.org/2000/svg" version="1.1" width="2048px" height="2048px" style="shape-rendering:geometricPrecision; text-rendering:geometricPrecision; image-rendering:optimizeQuality; fill-rule:evenodd; clip-rule:evenodd" xmlns:xlink="http://www.w3.org/1999/xlink">
<g><path style="opacity:1" fill="#fefefe" d="M -0.5,-0.5 C 682.167,-0.5 1364.83,-0.5 2047.5,-0.5C 2047.5,682.167 2047.5,1364.83 2047.5,2047.5C 1364.83,2047.5 682.167,2047.5 -0.5,2047.5C -0.5,1364.83 -0.5,682.167 -0.5,-0.5 Z"/></g>
<g><path style="opacity:1" fill="#274266" d="M 1097.5,1366.5 C 1154.83,1366.5 1212.17,1366.5 1269.5,1366.5C 1269.5,1309.17 1269.5,1251.83 1269.5,1194.5C 1271.92,1182.5 1278.59,1173.66 1289.5,1168C 1294.76,1165.87 1300.09,1164.03 1305.5,1162.5C 1353.5,1162.83 1401.5,1162.5 1449.5,1161.5C 1449.38,1160.89 1449.04,1160.56 1448.5,1160.5C 1293.73,1002.12 1149.4,835.455 1015.5,660.5C 883.187,836.111 739.52,1002.78 584.5,1160.5C 583.957,1160.56 583.624,1160.89 583.5,1161.5C 629.829,1162.5 676.162,1162.83 722.5,1162.5C 741.273,1165.27 752.606,1175.94 756.5,1194.5C 756.5,1251.83 756.5,1309.17 756.5,1366.5C 813.167,1366.5 869.833,1366.5 926.5,1366.5C 943.101,1368.93 953.601,1378.27 958,1394.5C 960.353,1415.31 951.853,1429.48 932.5,1437C 859.544,1438.65 786.544,1438.99 713.5,1438C 697.316,1433.49 687.816,1422.99 685,1406.5C 684.5,1350.5 684.333,1294.5 684.5,1238.5C 643.165,1238.67 601.832,1238.5 560.5,1238C 532.778,1232.41 513.611,1216.57 503,1190.5C 494.643,1164.67 498.976,1141.34 516,1120.5C 673.657,962.581 818.99,794.914 952,617.5C 952.667,616.833 952.667,616.167 952,615.5C 933.362,597.862 915.028,579.862 897,561.5C 885.387,544.172 885.72,527.172 898,510.5C 913.972,496.322 931.138,494.822 949.5,506C 972.305,527.805 994.805,549.972 1017,572.5C 1040.4,549.552 1063.9,526.718 1087.5,504C 1109.07,494.016 1126.9,498.516 1141,517.5C 1147.94,532.907 1146.6,547.574 1137,561.5C 1118.64,580.195 1099.97,598.529 1081,616.5C 1080.33,617.5 1080.33,618.5 1081,619.5C 1214.8,795.365 1359.8,962.365 1516,1120.5C 1535.36,1146.63 1537.69,1174.29 1523,1203.5C 1510.84,1222.97 1493.34,1234.47 1470.5,1238C 1427.5,1238.5 1384.5,1238.67 1341.5,1238.5C 1341.67,1294.17 1341.5,1349.83 1341,1405.5C 1338.28,1423.89 1327.78,1434.72 1309.5,1438C 1237.13,1438.98 1164.8,1438.65 1092.5,1437C 1071.34,1427.17 1063.84,1411.01 1070,1388.5C 1075.66,1376.76 1084.82,1369.42 1097.5,1366.5 Z"/></g>
<g><path style="opacity:1" fill="#e41a50" d="M 935.5,971.5 C 935.167,1036.17 935.5,1100.84 936.5,1165.5C 937.107,1165.38 937.44,1165.04 937.5,1164.5C 993.464,1093.42 1049.8,1022.59 1106.5,952C 1123.22,940.603 1138.39,942.436 1152,957.5C 1158.98,968.904 1159.31,980.571 1153,992.5C 1117.69,1037.31 1082.19,1081.98 1046.5,1126.5C 1081.87,1162.04 1117.04,1197.71 1152,1233.5C 1161.01,1249.65 1158.84,1264.15 1145.5,1277C 1134.47,1283.42 1123.14,1284.09 1111.5,1279C 1076.65,1244.99 1041.99,1210.82 1007.5,1176.5C 981.77,1208.28 956.27,1240.28 931,1272.5C 918.147,1286.78 903.314,1289.28 886.5,1280C 880.508,1275.18 876.674,1269.02 875,1261.5C 874.333,1163.5 874.333,1065.5 875,967.5C 882.538,947.981 896.372,941.148 916.5,947C 927.156,951.822 933.49,959.989 935.5,971.5 Z"/></g>
<g><path style="opacity:1" fill="#f3a1b6" d="M 935.5,971.5 C 936.167,1035.83 936.833,1100.17 937.5,1164.5C 937.44,1165.04 937.107,1165.38 936.5,1165.5C 935.5,1100.84 935.167,1036.17 935.5,971.5 Z"/></g>
<g><path style="opacity:1" fill="#6b7d96" d="M 584.5,1160.5 C 630.5,1161.17 676.5,1161.83 722.5,1162.5C 676.162,1162.83 629.829,1162.5 583.5,1161.5C 583.624,1160.89 583.957,1160.56 584.5,1160.5 Z"/></g>
<g><path style="opacity:1" fill="#6c7d96" d="M 1448.5,1160.5 C 1449.04,1160.56 1449.38,1160.89 1449.5,1161.5C 1401.5,1162.5 1353.5,1162.83 1305.5,1162.5C 1353.17,1161.83 1400.83,1161.17 1448.5,1160.5 Z"/></g>
<g><path style="opacity:1" fill="#909cb0" d="M 756.5,1194.5 C 757.499,1251.33 757.832,1308.33 757.5,1365.5C 814.002,1365.17 870.336,1365.5 926.5,1366.5C 869.833,1366.5 813.167,1366.5 756.5,1366.5C 756.5,1309.17 756.5,1251.83 756.5,1194.5 Z"/></g>
<g><path style="opacity:1" fill="#8997ab" d="M 1269.5,1194.5 C 1269.5,1251.83 1269.5,1309.17 1269.5,1366.5C 1212.17,1366.5 1154.83,1366.5 1097.5,1366.5C 1154.33,1365.5 1211.33,1365.17 1268.5,1365.5C 1268.17,1308.33 1268.5,1251.33 1269.5,1194.5 Z"/></g>
</svg>
