<?xml version="1.0" standalone="no"?>
<!DOCTYPE svg PUBLIC "-//W3C//DTD SVG 20010904//EN"
 "http://www.w3.org/TR/2001/REC-SVG-20010904/DTD/svg10.dtd">
<svg version="1.0" xmlns="http://www.w3.org/2000/svg"
 width="240.000000pt" height="240.000000pt" viewBox="0 0 240.000000 240.000000"
 preserveAspectRatio="xMidYMid meet">

<g transform="translate(0.000000,240.000000) scale(0.100000,-0.100000)"
fill="#000000" stroke="none">
<path d="M355 2123 c3 -16 37 -397 76 -848 39 -451 72 -821 73 -821 0 -1 158
-46 350 -101 l348 -100 346 99 c191 55 348 100 348 101 1 1 34 371 73 822 39
451 73 832 76 848 l5 27 -850 0 -849 0 4 -27z m1522 -165 c-4 -24 -32 -344
-63 -713 -32 -369 -59 -672 -60 -674 -2 -2 -118 -36 -259 -77 -140 -40 -264
-76 -275 -79 -18 -6 -20 0 -22 111 l-3 117 -195 65 c-107 36 -196 65 -197 66
0 0 -4 63 -8 139 l-8 137 100 0 100 0 7 -37 c3 -21 6 -49 6 -63 0 -24 8 -28
88 -54 48 -16 93 -31 100 -33 9 -4 12 28 12 141 l0 146 -109 0 -108 0 -7 31
c-3 17 -6 62 -6 100 l0 69 115 0 115 0 0 100 0 100 -224 0 -223 0 -6 68 c-4
37 -7 82 -7 100 l0 32 230 0 230 0 0 125 0 125 341 0 341 0 -5 -42z"/>
</g>
</svg>
