<?xml version="1.0" standalone="no"?>
<!DOCTYPE svg PUBLIC "-//W3C//DTD SVG 20010904//EN"
 "http://www.w3.org/TR/2001/REC-SVG-20010904/DTD/svg10.dtd">
<svg version="1.0" xmlns="http://www.w3.org/2000/svg"
 width="240.000000pt" height="240.000000pt" viewBox="0 0 240.000000 240.000000"
 preserveAspectRatio="xMidYMid meet">

<g transform="translate(0.000000,240.000000) scale(0.100000,-0.100000)"
fill="#000000" stroke="none">
<path d="M834 2240 c-140 -28 -248 -141 -275 -286 -32 -175 97 -360 275 -393
23 -5 34 -10 26 -13 -8 -3 -40 -13 -70 -22 -95 -31 -181 -113 -216 -207 -22
-58 -22 -180 0 -238 33 -88 113 -168 206 -206 37 -16 80 -20 258 -23 l212 -4
0 701 0 701 -187 -1 c-104 -1 -206 -5 -229 -9z"/>
</g>
</svg>
