<?xml version="1.0" standalone="no"?>
<!DOCTYPE svg PUBLIC "-//W3C//DTD SVG 20010904//EN"
 "http://www.w3.org/TR/2001/REC-SVG-20010904/DTD/svg10.dtd">
<svg version="1.0" xmlns="http://www.w3.org/2000/svg"
 width="240.000000pt" height="240.000000pt" viewBox="0 0 240.000000 240.000000"
 preserveAspectRatio="xMidYMid meet">

<g transform="translate(0.000000,240.000000) scale(0.100000,-0.100000)"
fill="#000000" stroke="none">
<path d="M1166 2139 c-17 -4 -73 -51 -128 -106 l-98 -98 97 -98 98 -97 41 6
c56 8 126 -23 154 -68 16 -25 20 -47 19 -91 l-3 -58 95 -95 94 -94 41 6 c56 8
126 -23 154 -68 27 -44 27 -122 0 -166 -22 -35 -88 -72 -130 -72 -42 0 -108
37 -130 72 -16 25 -20 47 -19 91 l3 58 -95 95 c-51 51 -97 94 -101 94 -5 0 -8
-115 -8 -255 l0 -254 29 -16 c67 -34 93 -143 51 -213 -22 -35 -88 -72 -130
-72 -42 0 -108 37 -130 72 -42 70 -16 179 51 213 l29 16 0 257 0 257 -30 17
c-50 28 -72 74 -67 140 l3 57 -98 98 -99 98 -294 -296 c-312 -315 -324 -331
-304 -401 12 -47 860 -894 907 -907 20 -6 44 -6 64 0 47 13 895 860 907 907
19 68 14 74 -447 535 -240 240 -445 437 -454 437 -9 0 -22 2 -30 4 -7 2 -26 0
-42 -5z"/>
</g>
</svg>
