<?xml version="1.0" standalone="no"?>
<!DOCTYPE svg PUBLIC "-//W3C//DTD SVG 20010904//EN"
 "http://www.w3.org/TR/2001/REC-SVG-20010904/DTD/svg10.dtd">
<svg version="1.0" xmlns="http://www.w3.org/2000/svg"
 width="240.000000pt" height="240.000000pt" viewBox="0 0 240.000000 240.000000"
 preserveAspectRatio="xMidYMid meet">

<g transform="translate(0.000000,240.000000) scale(0.100000,-0.100000)"
fill="#000000" stroke="none">
<path d="M356 2118 c6 -42 144 -1619 144 -1645 0 -16 46 -32 343 -116 188 -54
351 -97 362 -97 11 0 172 43 357 96 297 85 338 99 338 117 0 25 138 1602 144
1645 l5 32 -849 0 -849 0 5 -32z m1524 -131 c0 -17 -120 -1388 -123 -1406 -2
-11 -340 -116 -534 -166 -22 -5 -22 -3 -25 112 l-3 117 -196 65 -197 65 -6 95
c-4 53 -9 115 -13 139 l-5 42 104 0 105 0 6 -55 c3 -30 8 -59 11 -64 4 -5 43
-22 89 -37 45 -15 88 -29 95 -32 9 -3 12 29 12 142 l0 146 -210 0 -209 0 -5
33 c-3 17 -10 127 -16 242 -6 116 -13 236 -16 268 l-6 57 231 0 231 0 0 125 0
125 340 0 c269 0 340 -3 340 -13z"/>
<path d="M963 1483 c4 -38 7 -83 7 -100 l0 -33 115 0 115 0 0 100 0 100 -121
0 -122 0 6 -67z"/>
</g>
</svg>
