<?xml version="1.0" standalone="no"?>
<!DOCTYPE svg PUBLIC "-//W3C//DTD SVG 20010904//EN"
 "http://www.w3.org/TR/2001/REC-SVG-20010904/DTD/svg10.dtd">
<svg version="1.0" xmlns="http://www.w3.org/2000/svg"
 width="240.000000pt" height="240.000000pt" viewBox="0 0 240.000000 240.000000"
 preserveAspectRatio="xMidYMid meet">

<g transform="translate(0.000000,240.000000) scale(0.100000,-0.100000)"
fill="#000000" stroke="none">
<path d="M1098 1004 l-3 -296 -24 -19 c-43 -35 -118 -18 -157 36 l-19 25 -62
-40 c-35 -22 -63 -44 -63 -50 0 -19 93 -111 135 -133 32 -17 57 -22 126 -22
78 0 90 3 134 30 35 21 56 45 74 80 l26 49 3 318 3 318 -85 0 -85 0 -3 -296z"/>
<path d="M1525 1284 c-48 -18 -102 -67 -121 -111 -20 -46 -17 -140 5 -188 25
-56 69 -90 187 -146 132 -62 161 -102 114 -161 -44 -57 -137 -43 -198 28 l-39
46 -62 -42 -62 -42 17 -26 c54 -87 134 -133 240 -140 170 -11 293 80 294 218
0 121 -46 176 -213 255 -116 54 -137 73 -137 117 0 43 24 63 75 63 40 0 51 -5
76 -33 l29 -32 57 37 c32 21 60 38 62 40 9 6 -44 71 -74 92 -63 43 -171 54
-250 25z"/>
</g>
</svg>
