<?xml version="1.0" standalone="no"?>
<!DOCTYPE svg PUBLIC "-//W3C//DTD SVG 20010904//EN"
 "http://www.w3.org/TR/2001/REC-SVG-20010904/DTD/svg10.dtd">
<svg version="1.0" xmlns="http://www.w3.org/2000/svg"
 width="240.000000pt" height="240.000000pt" viewBox="0 0 240.000000 240.000000"
 preserveAspectRatio="xMidYMid meet">

<g transform="translate(0.000000,240.000000) scale(0.100000,-0.100000)"
fill="#000000" stroke="none">
<path d="M300 1200 l0 -900 900 0 900 0 0 900 0 900 -900 0 -900 0 0 -900z
m1078 18 l-3 -83 -117 -3 -118 -3 0 -364 0 -365 -95 0 -95 0 0 365 0 365 -120
0 -120 0 0 85 0 85 335 0 336 0 -3 -82z m532 69 c55 -12 55 -12 58 -52 2 -22
1 -63 -3 -91 l-6 -51 -52 26 c-43 21 -67 26 -134 26 -73 0 -84 -3 -107 -24
-34 -32 -36 -89 -3 -118 12 -11 67 -43 122 -71 172 -88 215 -141 215 -263 0
-176 -106 -269 -307 -269 -78 0 -231 26 -250 42 -13 11 -19 179 -7 190 3 3 31
-7 62 -24 77 -39 176 -56 232 -39 32 10 45 20 56 46 26 63 4 88 -142 164 -146
75 -201 141 -211 251 -12 130 59 226 192 260 45 12 223 10 285 -3z"/>
</g>
</svg>
