<?xml version="1.0" encoding="utf-8" ?>
<svg xmlns="http://www.w3.org/2000/svg" xmlns:xlink="http://www.w3.org/1999/xlink" width="1024" height="1024">
	<path fill="#DEDEDE" transform="scale(2 2)" d="M274.166 186.734C279.419 186.98 286.438 187.335 291.59 186.734L291.59 208.012C291.503 207.974 276.406 189.685 274.166 186.734Z"/>
	<path fill="#F07B14" transform="scale(2 2)" d="M248.115 166.648L291.59 166.648L291.59 186.734C286.438 187.335 279.419 186.98 274.166 186.734C264.944 182.691 258.651 172.333 244.023 169.673C244.169 166.388 245.117 166.734 248.115 166.648Z"/>
	<path fill="#E33913" transform="scale(2 2)" d="M159.999 211.251L170.707 211.251L170.707 275.473L203.911 275.473L203.911 284.741L159.999 284.741L159.999 211.251Z"/>
	<path fill="#F07B14" transform="scale(2 2)" d="M334.105 255.752L356.465 255.752L356.465 313.752L334.105 313.752C333.876 307.471 334.111 301.08 334.11 294.789L334.105 255.752Z"/>
	<path fill="#E33913" transform="scale(2 2)" d="M254.459 211.251L267.033 211.251C265.913 215.115 264.097 218.929 262.622 222.681C254.198 242.844 247.19 264.264 238.993 284.741C235.488 284.826 231.973 284.76 228.467 284.741C222.621 271.08 217.818 256.897 212.485 243.028L204.819 223.041C203.328 219.156 201.6 215.259 200.473 211.251L212.018 211.251C219.569 228.364 227.502 251.644 233.401 269.516C235.878 264.668 237.331 259.06 239.242 253.942L248.269 229.596C250.301 224.19 253.766 216.832 254.459 211.251Z"/>
	<path fill="#FDE464" transform="scale(2 2)" d="M178.131 166.648L178.125 148.143C178.127 142.844 176.53 133.106 183.844 131.793C192.986 130.151 225.372 131.287 235.297 131.618C245.393 131.955 244.045 140.98 244.041 148.564L244.023 166.648C245.378 166.642 246.763 166.581 248.115 166.648C245.117 166.734 244.169 166.388 244.023 169.673C226.558 159.251 197.157 162.63 178.131 169.673L178.131 166.648C169.172 166.445 160.19 166.775 151.226 166.648C160.177 166.42 169.173 166.657 178.131 166.648Z"/>
	<path fill="#DEDEDE" transform="scale(2 2)" d="M304.725 255.752L334.105 255.752L334.11 294.789C334.111 301.08 333.876 307.471 334.105 313.752L278.357 313.752C278.739 313.532 278.669 313.613 278.923 313.348C293.455 298.201 305.061 277.312 304.725 255.752Z"/>
	<path fill="#FDC901" transform="scale(2 2)" d="M170.027 403.443L226.413 403.437C235.734 403.436 245.151 403.154 254.459 403.443L286.492 403.443L286.492 420.147C281.315 420.412 275.986 420.152 270.791 420.151L138.047 420.147C137.964 414.582 138.032 409.01 138.047 403.443L170.027 403.443Z"/>
	<path fill="#E33913" transform="scale(2 2)" d="M170.027 372.693C175.139 372.962 180.329 372.701 185.452 372.696L241.709 372.707C245.898 372.711 250.288 372.985 254.459 372.693L254.459 403.443C245.151 403.154 235.734 403.436 226.413 403.437L170.027 403.443C169.628 393.255 170.022 382.898 170.027 372.693Z"/>
	<path fill="#F07B14" transform="scale(2 2)" d="M67.1996 313.752L67.1862 203.329C67.1805 188.44 67.4782 172.293 86.0277 167.646C93.1166 165.87 104.498 166.64 111.997 166.64L151.226 166.648C160.19 166.775 169.172 166.445 178.131 166.648L178.131 169.673C171.331 172.586 164.997 175.83 158.723 179.761C156.404 181.213 151.14 186.616 148.834 186.734L113.101 186.734C107.93 186.734 100.463 186.186 95.5079 187.001C85.4411 188.658 87.8254 199.426 87.8355 206.834L87.8487 313.752L74.4289 313.71C72.0667 313.694 69.5359 313.478 67.1996 313.752Z"/>
	<path fill="#DEDEDE" transform="scale(2 2)" d="M87.8487 313.752L87.8355 206.834C87.8254 199.426 85.4411 188.658 95.5079 187.001C100.463 186.186 107.93 186.734 113.101 186.734L148.834 186.734C144.648 191.83 139.992 196.638 136.207 202.039C115.06 232.21 115.488 274.375 138.39 303.485C140.182 305.764 146.119 311.762 146.824 313.752L104.252 313.752C100.02 313.754 91.6754 314.4 87.8487 313.752Z"/>
	<path fill="#FDC901" transform="scale(2 2)" d="M67.1996 313.752C69.5359 313.478 72.0667 313.694 74.4289 313.71L87.8487 313.752C91.6754 314.4 100.02 313.754 104.252 313.752L146.824 313.752L278.357 313.752L334.105 313.752L356.465 313.752L356.475 334.577C356.494 346.366 357.843 355.632 348.648 364.727C340.755 372.534 332.02 372.699 321.664 372.7L254.459 372.693C250.288 372.985 245.898 372.711 241.709 372.707L185.452 372.696C180.329 372.701 175.139 372.962 170.027 372.693C166.863 372.078 162.282 372.693 158.962 372.705L112.227 372.699C95.2039 372.707 74.0555 376.288 68.2313 354.467C66.5708 348.246 67.188 341.077 67.188 334.682L67.1996 313.752Z"/>
	<path fill="#FDE464" transform="scale(2 2)" d="M308.003 334.678L325.097 334.678L325.097 351.014C324.058 351.3 309.697 351.205 308.003 351.014L308.003 334.678Z"/>
	<path fill="#E33913" transform="scale(2 2)" d="M125.018 333.511L141.827 333.511C141.903 339.341 141.828 345.183 141.827 351.014L125.018 351.014L125.018 333.511Z"/>
	<path fill="#E33913" transform="scale(2 2)" d="M93.1901 333.511L110.496 333.511L110.496 351.014L93.1901 351.014L93.1901 333.511Z"/>
	<path fill="#E33913" transform="scale(2 2)" d="M291.59 88.2117L445.651 88.2117L445.651 219.787L328.021 219.787C323.906 222.574 320.403 226.629 316.728 229.995L291.59 253.021L291.59 208.012L291.59 186.734L291.59 166.648C291.81 163.374 291.623 160.068 291.602 156.788L291.59 88.2117ZM382.753 118.792C378.981 120.529 377.478 122.732 376.626 126.615C378.399 133.263 396.051 148.068 401.345 154.992C396.529 159.517 392.115 164.468 387.481 169.18C382.857 173.883 370.249 183.125 378.182 190.305C380.56 192.458 384.514 193.057 387.276 191.294C390.476 188.71 393.25 185.495 396.098 182.535L407.651 170.576C412.445 165.525 424.619 157.252 418.16 149.462C413.948 144.383 408.702 139.803 404.038 135.104C398.36 129.384 390.971 118.288 382.753 118.792ZM351.791 118.792C346.774 120.849 318.238 148.215 316.662 154.992C318.558 161.487 324.79 165.479 329.357 170.121C334.039 174.88 347.416 190.589 352.919 192.244C357.623 192.341 361.392 190.213 361.554 185.01C361.716 179.748 353.207 172.791 349.686 169.271L335.152 154.992L352.32 137.802C355.742 134.306 359.645 131.369 361.279 126.615C360.029 121.128 357.484 118.517 351.791 118.792Z"/>
</svg>
